P3
10 6
255
255 255 255 255 255 253 255 255 255 255 255 255 255 253 254 254 255 255 254 255 255 254 254 254 254 255 1 255 255 255 
255 255 255 255 255 251 255 254 253 253 0 1 3 254 0 0 253 2 1 255 1 3 254 0 254 0 0 255 255 255 
255 255 255 252 255 255 255 255 253 1 255 0 254 255 253 255 254 255 252 255 253 255 254 255 0 255 1 255 255 255 
255 254 255 255 254 255 255 255 255 0 255 1 254 254 254 255 255 253 255 255 255 255 255 253 1 255 1 255 255 255 
254 1 252 1 255 0 0 255 1 254 0 2 0 255 0 0 252 1 1 255 0 0 254 2 254 0 0 255 255 255 
255 255 251 253 255 254 255 255 255 255 253 254 255 255 255 255 255 253 255 255 253 254 255 255 255 255 255 255 255 255 
